<svg width="25" height="30" viewBox="0 0 25 30" fill="none" xmlns="http://www.w3.org/2000/svg">
<path opacity="0.6" d="M13.2409 22.2136C13.1738 22.1519 13.1007 22.0971 13.0227 22.05C12.9531 21.996 12.8747 21.9545 12.7909 21.9273C12.7097 21.8857 12.6221 21.8581 12.5318 21.8455C12.2706 21.7902 11.9986 21.8189 11.7545 21.9273C11.5853 21.9885 11.4316 22.0862 11.3044 22.2135C11.1771 22.3407 11.0794 22.4944 11.0182 22.6636C10.9418 22.8255 10.9045 23.0029 10.9091 23.1818C10.9069 23.3591 10.9393 23.5351 11.0045 23.7C11.0836 23.8629 11.1845 24.0143 11.3045 24.15C11.432 24.2764 11.5831 24.3764 11.7492 24.4442C11.9154 24.5121 12.0933 24.5465 12.2727 24.5455C12.4516 24.5501 12.6291 24.5127 12.7909 24.4364C12.9562 24.3673 13.1084 24.2705 13.2409 24.15C13.3673 24.0226 13.4673 23.8715 13.5351 23.7053C13.603 23.5392 13.6374 23.3613 13.6364 23.1818C13.6342 23.0036 13.5971 22.8276 13.5273 22.6636C13.4624 22.4963 13.3651 22.3433 13.2409 22.2136ZM7.56818 16.5955C7.49857 16.5415 7.42014 16.5 7.33636 16.4727C7.25694 16.4217 7.16928 16.3848 7.07727 16.3636C6.90234 16.3229 6.72039 16.3229 6.54545 16.3636L6.3 16.4455L6.05455 16.5682L5.85 16.7318C5.59436 17 5.45261 17.3568 5.45455 17.7273C5.45351 17.9067 5.48791 18.0846 5.55577 18.2508C5.62363 18.4169 5.72362 18.568 5.85 18.6955C5.98255 18.8159 6.13475 18.9128 6.3 18.9818C6.50659 19.0667 6.73086 19.0995 6.95311 19.0774C7.17536 19.0553 7.38877 18.979 7.57461 18.8551C7.76044 18.7312 7.913 18.5636 8.01888 18.3669C8.12475 18.1703 8.18071 17.9506 8.18182 17.7273C8.1768 17.3662 8.03555 17.0204 7.78636 16.7591L7.56818 16.5955ZM7.78636 22.2136C7.65668 22.0895 7.50375 21.9922 7.33636 21.9273C7.08952 21.8128 6.81407 21.7748 6.54545 21.8182L6.3 21.9C6.2131 21.9298 6.13056 21.9711 6.05455 22.0227C5.98311 22.0731 5.9148 22.1277 5.85 22.1864C5.72585 22.3161 5.62854 22.469 5.56364 22.6364C5.49149 22.7996 5.45423 22.9761 5.45423 23.1545C5.45423 23.333 5.49149 23.5095 5.56364 23.6727C5.63269 23.838 5.72955 23.9902 5.85 24.1227C5.97515 24.254 6.12524 24.3591 6.29149 24.4317C6.45774 24.5042 6.6368 24.5429 6.81818 24.5455C6.99706 24.5501 7.17453 24.5127 7.33636 24.4364C7.50162 24.3673 7.65382 24.2705 7.78636 24.15C7.90682 24.0175 8.00367 23.8653 8.07273 23.7C8.14487 23.5368 8.18214 23.3603 8.18214 23.1818C8.18214 23.0034 8.14487 22.8269 8.07273 22.6636C8.00783 22.4963 7.91051 22.3433 7.78636 22.2136ZM11.7545 16.4727C11.5872 16.5376 11.4342 16.6349 11.3045 16.7591C11.0554 17.0204 10.9141 17.3662 10.9091 17.7273C10.9102 17.9506 10.9662 18.1703 11.072 18.3669C11.1779 18.5636 11.3305 18.7312 11.5163 18.8551C11.7021 18.979 11.9156 19.0553 12.1378 19.0774C12.36 19.0995 12.5843 19.0667 12.7909 18.9818C12.9562 18.9128 13.1084 18.8159 13.2409 18.6955C13.3673 18.568 13.4673 18.4169 13.5351 18.2508C13.603 18.0846 13.6374 17.9067 13.6364 17.7273C13.6313 17.3662 13.4901 17.0204 13.2409 16.7591C13.0491 16.5699 12.8056 16.4417 12.5411 16.3907C12.2766 16.3398 12.0029 16.3683 11.7545 16.4727ZM18.6955 22.2136C18.5629 22.0932 18.4107 21.9963 18.2455 21.9273C17.9971 21.8228 17.7234 21.7943 17.4589 21.8453C17.1944 21.8962 16.9509 22.0244 16.7591 22.2136C16.6349 22.3433 16.5376 22.4963 16.4727 22.6636C16.4006 22.8269 16.3633 23.0034 16.3633 23.1818C16.3633 23.3603 16.4006 23.5368 16.4727 23.7C16.5418 23.8653 16.6386 24.0175 16.7591 24.15C16.8865 24.2764 17.0376 24.3764 17.2038 24.4442C17.3699 24.5121 17.5478 24.5465 17.7273 24.5455C17.9062 24.5501 18.0836 24.5127 18.2455 24.4364C18.4107 24.3673 18.5629 24.2705 18.6955 24.15C18.8847 23.9582 19.0128 23.7147 19.0638 23.4502C19.1148 23.1857 19.0862 22.912 18.9818 22.6636C18.9169 22.4963 18.8196 22.3433 18.6955 22.2136ZM17.7273 5.45455H6.81818C6.45652 5.45455 6.10968 5.59821 5.85395 5.85395C5.59821 6.10968 5.45455 6.45652 5.45455 6.81818V12.2727C5.45455 12.6344 5.59821 12.9812 5.85395 13.237C6.10968 13.4927 6.45652 13.6364 6.81818 13.6364H17.7273C18.0889 13.6364 18.4358 13.4927 18.6915 13.237C18.9472 12.9812 19.0909 12.6344 19.0909 12.2727V6.81818C19.0909 6.45652 18.9472 6.10968 18.6915 5.85395C18.4358 5.59821 18.0889 5.45455 17.7273 5.45455ZM16.3636 10.9091H8.18182V8.18182H16.3636V10.9091ZM20.4545 0H4.09091C3.00593 0 1.96539 0.431005 1.1982 1.1982C0.431005 1.96539 0 3.00593 0 4.09091V25.9091C0 26.9941 0.431005 28.0346 1.1982 28.8018C1.96539 29.569 3.00593 30 4.09091 30H20.4545C21.5395 30 22.5801 29.569 23.3473 28.8018C24.1145 28.0346 24.5455 26.9941 24.5455 25.9091V4.09091C24.5455 3.00593 24.1145 1.96539 23.3473 1.1982C22.5801 0.431005 21.5395 0 20.4545 0ZM21.8182 25.9091C21.8182 26.2708 21.6745 26.6176 21.4188 26.8733C21.1631 27.1291 20.8162 27.2727 20.4545 27.2727H4.09091C3.72925 27.2727 3.3824 27.1291 3.12667 26.8733C2.87094 26.6176 2.72727 26.2708 2.72727 25.9091V4.09091C2.72727 3.72925 2.87094 3.3824 3.12667 3.12667C3.3824 2.87094 3.72925 2.72727 4.09091 2.72727H20.4545C20.8162 2.72727 21.1631 2.87094 21.4188 3.12667C21.6745 3.3824 21.8182 3.72925 21.8182 4.09091V25.9091ZM18.4773 16.5955C18.4077 16.5415 18.3292 16.5 18.2455 16.4727C18.1643 16.4312 18.0767 16.4036 17.9864 16.3909C17.8114 16.3502 17.6295 16.3502 17.4545 16.3909L17.2091 16.4727L16.9636 16.5955L16.7591 16.7591C16.5099 17.0204 16.3687 17.3662 16.3636 17.7273C16.3647 17.9506 16.4207 18.1703 16.5266 18.3669C16.6325 18.5636 16.785 18.7312 16.9708 18.8551C17.1567 18.979 17.3701 19.0553 17.5923 19.0774C17.8146 19.0995 18.0389 19.0667 18.2455 18.9818C18.4107 18.9128 18.5629 18.8159 18.6955 18.6955C18.8218 18.568 18.9218 18.4169 18.9897 18.2508C19.0576 18.0846 19.0919 17.9067 19.0909 17.7273C19.0859 17.3662 18.9446 17.0204 18.6955 16.7591L18.4773 16.5955Z" fill="white"/>
</svg>
