<svg width="14" height="14" viewBox="0 0 14 14" fill="none" xmlns="http://www.w3.org/2000/svg">
<path fill-rule="evenodd" clip-rule="evenodd" d="M7.06927 6.07537L12.6825 0.462273C12.9378 0.206966 13.3517 0.206968 13.607 0.462277V0.462277C13.8624 0.71759 13.8624 1.13154 13.607 1.38685L7.99383 6.99993L13.6071 12.6132C13.8624 12.8685 13.8624 13.2824 13.6071 13.5377V13.5377C13.3517 13.793 12.9378 13.793 12.6825 13.5377L7.06927 7.92463L1.45618 13.5377C1.20087 13.793 0.786928 13.793 0.531615 13.5377V13.5377C0.276305 13.2824 0.276302 12.8685 0.53161 12.6132L6.14471 6.99993L0.531628 1.38698C0.276312 1.13167 0.27631 0.717721 0.531623 0.462408V0.462408C0.786932 0.207099 1.20087 0.207096 1.45618 0.462403L7.06927 6.07537Z" fill="#D2D2D2"/>
</svg>
