<svg width="35" height="8" viewBox="0 0 35 8" fill="none" xmlns="http://www.w3.org/2000/svg">
<path d="M7.60272 4C7.60272 3.20888 7.37977 2.43552 6.96207 1.77772C6.54437 1.11992 5.95068 0.607234 5.25608 0.304484C4.56147 0.0017333 3.79714 -0.0774803 3.05975 0.0768609C2.32236 0.231202 1.64502 0.612165 1.11339 1.17158C0.581764 1.73099 0.21972 2.44372 0.0730437 3.21964C-0.0736325 3.99556 0.00164706 4.79983 0.289363 5.53073C0.577079 6.26164 1.06431 6.88635 1.68944 7.32588C2.31457 7.7654 3.04952 8 3.80136 8C4.80954 8 5.77643 7.57857 6.48932 6.82842C7.20222 6.07828 7.60272 5.06087 7.60272 4ZM26.6095 4C26.6095 4.79112 26.8324 5.56448 27.2501 6.22228C27.6678 6.88008 28.2615 7.39277 28.9561 7.69552C29.6507 7.99827 30.4151 8.07748 31.1525 7.92314C31.8899 7.7688 32.5672 7.38783 33.0988 6.82842C33.6305 6.26902 33.9925 5.55628 34.1392 4.78036C34.2859 4.00444 34.2106 3.20017 33.9229 2.46927C33.6351 1.73836 33.1479 1.11365 32.5228 0.674124C31.8976 0.234599 31.1627 2.86102e-06 30.4109 2.86102e-06C29.4027 2.86102e-06 28.4358 0.42143 27.7229 1.17158C27.01 1.92172 26.6095 2.93913 26.6095 4ZM13.3048 4C13.3048 4.79112 13.5277 5.56448 13.9454 6.22228C14.3631 6.88008 14.9568 7.39277 15.6514 7.69552C16.346 7.99827 17.1103 8.07748 17.8477 7.92314C18.5851 7.7688 19.2624 7.38783 19.7941 6.82842C20.3257 6.26902 20.6877 5.55628 20.8344 4.78036C20.9811 4.00444 20.9058 3.20017 20.6181 2.46927C20.3304 1.73836 19.8432 1.11365 19.218 0.674124C18.5929 0.234599 17.8579 2.86102e-06 17.1061 2.86102e-06C16.0979 2.86102e-06 15.131 0.42143 14.4181 1.17158C13.7053 1.92172 13.3048 2.93913 13.3048 4Z" fill="white"/>
</svg>
