<svg width="22" height="24" viewBox="0 0 22 24" fill="none" xmlns="http://www.w3.org/2000/svg">
<path d="M22 6.28755C22.0008 6.12963 21.9731 5.97309 21.9183 5.8269C21.8636 5.6807 21.7829 5.54773 21.681 5.43561L17.017 0.347994C16.9142 0.236785 16.7923 0.148801 16.6583 0.0890879C16.5243 0.0293749 16.3808 -0.000892948 16.236 2.00557e-05C16.0912 -0.000892948 15.9477 0.0293749 15.8137 0.0890879C15.6797 0.148801 15.5578 0.236785 15.455 0.347994L12.342 3.74374L0.319018 16.8588C0.217068 16.9709 0.136411 17.1038 0.0816699 17.25C0.0269289 17.3962 -0.000818595 17.5528 1.83857e-05 17.7107V22.7983C1.83857e-05 23.1166 0.115911 23.4218 0.3222 23.6468C0.52849 23.8718 0.808279 23.9982 1.10002 23.9982H5.76401C5.91793 24.0074 6.07189 23.9811 6.21591 23.9212C6.35993 23.8612 6.49079 23.7689 6.60001 23.6503L18.557 10.5352L21.681 7.19948C21.7814 7.08319 21.8632 6.94934 21.923 6.80351C21.9336 6.70787 21.9336 6.61118 21.923 6.51553C21.9281 6.45968 21.9281 6.4034 21.923 6.34755L22 6.28755ZM5.31301 21.5984H2.20001V18.2027L13.123 6.28755L16.236 9.6833L5.31301 21.5984ZM17.787 7.99142L14.674 4.59568L16.236 2.9038L19.338 6.28755L17.787 7.99142Z" fill="white"/>
</svg>
