<svg width="21" height="30" viewBox="0 0 21 30" fill="none" xmlns="http://www.w3.org/2000/svg">
<path d="M19.4997 0H1.49998C1.10216 0 0.720635 0.158033 0.439334 0.439334C0.158033 0.720634 3.24792e-09 1.10216 3.24792e-09 1.49998V28.4996C-1.88628e-05 28.7863 0.0821519 29.0671 0.236778 29.3086C0.391404 29.55 0.612005 29.7421 0.872448 29.8621C1.13289 29.9821 1.42226 30.0249 1.70628 29.9854C1.9903 29.946 2.25706 29.826 2.47497 29.6396L10.4999 22.9047L18.4347 29.5646C18.5749 29.7036 18.7411 29.8136 18.9239 29.8882C19.1066 29.9629 19.3023 30.0007 19.4997 29.9996C19.6965 30.0047 19.8917 29.9636 20.0697 29.8796C20.3436 29.7671 20.5781 29.576 20.7436 29.3304C20.9091 29.0848 20.9982 28.7957 20.9997 28.4996V1.49998C20.9997 1.10216 20.8417 0.720634 20.5604 0.439334C20.2791 0.158033 19.8975 0 19.4997 0ZM17.9997 25.2896L11.4598 19.7997C11.1903 19.5752 10.8506 19.4523 10.4999 19.4523C10.1491 19.4523 9.80939 19.5752 9.53987 19.7997L2.99996 25.2896V2.99996H17.9997V25.2896Z" fill="white"/>
</svg>
