<svg width="22" height="22" viewBox="0 0 22 22" fill="none" xmlns="http://www.w3.org/2000/svg">
<path d="M11 13.2C10.7281 13.2 10.4622 13.2806 10.2361 13.4317C10.01 13.5828 9.83374 13.7976 9.72967 14.0488C9.6256 14.3001 9.59837 14.5765 9.65142 14.8432C9.70448 15.11 9.83543 15.355 10.0277 15.5473C10.22 15.7396 10.465 15.8705 10.7318 15.9236C10.9985 15.9766 11.2749 15.9494 11.5262 15.8453C11.7774 15.7413 11.9922 15.565 12.1433 15.3389C12.2944 15.1128 12.375 14.8469 12.375 14.575C12.375 14.2103 12.2301 13.8606 11.9723 13.6027C11.7144 13.3449 11.3647 13.2 11 13.2ZM11 11.55C11.2917 11.55 11.5715 11.4341 11.7778 11.2278C11.9841 11.0215 12.1 10.7417 12.1 10.45V7.15C12.1 6.85826 11.9841 6.57847 11.7778 6.37218C11.5715 6.16589 11.2917 6.05 11 6.05C10.7083 6.05 10.4285 6.16589 10.2222 6.37218C10.0159 6.57847 9.9 6.85826 9.9 7.15V10.45C9.9 10.7417 10.0159 11.0215 10.2222 11.2278C10.4285 11.4341 10.7083 11.55 11 11.55ZM11 0C8.82441 0 6.69767 0.645139 4.88873 1.85383C3.07979 3.06253 1.66989 4.78049 0.83733 6.79048C0.00476612 8.80047 -0.21307 11.0122 0.211367 13.146C0.635804 15.2798 1.68345 17.2398 3.22183 18.7782C4.76021 20.3165 6.72022 21.3642 8.85401 21.7886C10.9878 22.2131 13.1995 21.9952 15.2095 21.1627C17.2195 20.3301 18.9375 18.9202 20.1462 17.1113C21.3549 15.3023 22 13.1756 22 11C21.9968 8.08361 20.8368 5.2876 18.7746 3.22541C16.7124 1.16321 13.9164 0.00324344 11 0ZM11 19.8C9.25953 19.8 7.55814 19.2839 6.11098 18.3169C4.66383 17.35 3.53592 15.9756 2.86986 14.3676C2.20381 12.7596 2.02954 10.9902 2.36909 9.2832C2.70864 7.57617 3.54676 6.00816 4.77746 4.77746C6.00817 3.54676 7.57618 2.70864 9.28321 2.36909C10.9902 2.02954 12.7596 2.20381 14.3676 2.86986C15.9756 3.53591 17.35 4.66383 18.3169 6.11098C19.2839 7.55813 19.8 9.25952 19.8 11C19.7973 13.3331 18.8693 15.5698 17.2196 17.2196C15.5698 18.8693 13.3331 19.7973 11 19.8Z" fill="white"/>
</svg>
