<svg width="27" height="30" viewBox="0 0 27 30" fill="none" xmlns="http://www.w3.org/2000/svg">
<path d="M25.4697 9.0251L16.4804 1.14453C15.6564 0.407478 14.5896 0 13.484 0C12.3784 0 11.3116 0.407478 10.4876 1.14453L1.49835 9.0251C1.02247 9.4507 0.642723 9.9728 0.38439 10.5566C0.126057 11.1405 -0.00493294 11.7726 0.000142021 12.411V25.5054C0.000142021 26.6974 0.473681 27.8407 1.31659 28.6836C2.15949 29.5265 3.30272 30 4.49476 30H22.4732C23.6653 30 24.8085 29.5265 25.6514 28.6836C26.4943 27.8407 26.9679 26.6974 26.9679 25.5054V12.3961C26.9708 11.7602 26.8388 11.1309 26.5805 10.5498C26.3223 9.9687 25.9436 9.44903 25.4697 9.0251ZM16.4804 27.0036H10.4876V19.5126C10.4876 19.1152 10.6454 18.7341 10.9264 18.4532C11.2074 18.1722 11.5884 18.0143 11.9858 18.0143H14.9822C15.3796 18.0143 15.7606 18.1722 16.0416 18.4532C16.3226 18.7341 16.4804 19.1152 16.4804 19.5126V27.0036ZM23.9715 25.5054C23.9715 25.9027 23.8136 26.2838 23.5326 26.5648C23.2517 26.8457 22.8706 27.0036 22.4732 27.0036H19.4768V19.5126C19.4768 18.3205 19.0033 17.1773 18.1604 16.3344C17.3175 15.4915 16.1743 15.0179 14.9822 15.0179H11.9858C10.7938 15.0179 9.65053 15.4915 8.80762 16.3344C7.96472 17.1773 7.49118 18.3205 7.49118 19.5126V27.0036H4.49476C4.09741 27.0036 3.71634 26.8457 3.43537 26.5648C3.1544 26.2838 2.99656 25.9027 2.99656 25.5054V12.3961C2.99683 12.1833 3.04239 11.9731 3.13022 11.7794C3.21805 11.5856 3.34614 11.4128 3.50595 11.2724L12.4952 3.40682C12.7686 3.16663 13.1201 3.03417 13.484 3.03417C13.8479 3.03417 14.1994 3.16663 14.4728 3.40682L23.4621 11.2724C23.6219 11.4128 23.75 11.5856 23.8378 11.7794C23.9256 11.9731 23.9712 12.1833 23.9715 12.3961V25.5054Z" fill="white"/>
</svg>
