<svg width="30" height="30" viewBox="0 0 30 30" fill="none" xmlns="http://www.w3.org/2000/svg">
<path d="M26.25 8.8V4.375C26.25 3.21468 25.7891 2.10188 24.9686 1.28141C24.1481 0.460936 23.0353 0 21.875 0H4.375C3.21468 0 2.10188 0.460936 1.28141 1.28141C0.460936 2.10188 0 3.21468 0 4.375V25.625C0 26.7853 0.460936 27.8981 1.28141 28.7186C2.10188 29.5391 3.21468 30 4.375 30H25.625C26.7853 30 27.8981 29.5391 28.7186 28.7186C29.5391 27.8981 30 26.7853 30 25.625V13.125C29.9988 12.0738 29.6191 11.0583 28.9305 10.2641C28.2419 9.46988 27.2904 8.95016 26.25 8.8ZM17.4312 27.5H4.375C3.87772 27.5 3.40081 27.3025 3.04917 26.9508C2.69754 26.5992 2.5 26.1223 2.5 25.625V4.375C2.5 3.87772 2.69754 3.40081 3.04917 3.04917C3.40081 2.69754 3.87772 2.5 4.375 2.5H21.875C22.3723 2.5 22.8492 2.69754 23.2008 3.04917C23.5525 3.40081 23.75 3.87772 23.75 4.375V27.5H17.4312ZM27.5 25.625C27.4989 26.0118 27.3782 26.3889 27.1544 26.7044C26.9306 27.02 26.6147 27.2586 26.25 27.3875V11.3625C26.6147 11.4914 26.9306 11.73 27.1544 12.0456C27.3782 12.3611 27.4989 12.7382 27.5 13.125V25.625Z" fill="white"/>
<path d="M20.625 13.9686H5.625C5.29348 13.9686 4.97554 14.1003 4.74112 14.3347C4.5067 14.5691 4.375 14.887 4.375 15.2186C4.375 15.5501 4.5067 15.868 4.74112 16.1024C4.97554 16.3369 5.29348 16.4686 5.625 16.4686H20.625C20.9565 16.4686 21.2745 16.3369 21.5089 16.1024C21.7433 15.868 21.875 15.5501 21.875 15.2186C21.875 14.887 21.7433 14.5691 21.5089 14.3347C21.2745 14.1003 20.9565 13.9686 20.625 13.9686ZM20.625 18.6936H5.625C5.29348 18.6936 4.97554 18.8253 4.74112 19.0597C4.5067 19.2941 4.375 19.612 4.375 19.9436C4.375 20.2751 4.5067 20.593 4.74112 20.8274C4.97554 21.0619 5.29348 21.1936 5.625 21.1936H20.625C20.9565 21.1936 21.2745 21.0619 21.5089 20.8274C21.7433 20.593 21.875 20.2751 21.875 19.9436C21.875 19.612 21.7433 19.2941 21.5089 19.0597C21.2745 18.8253 20.9565 18.6936 20.625 18.6936ZM20.625 9.14355H5.625C5.29348 9.14355 4.97554 9.27525 4.74112 9.50967C4.5067 9.74409 4.375 10.062 4.375 10.3936C4.375 10.7251 4.5067 11.043 4.74112 11.2774C4.97554 11.5119 5.29348 11.6436 5.625 11.6436H20.625C20.9565 11.6436 21.2745 11.5119 21.5089 11.2774C21.7433 11.043 21.875 10.7251 21.875 10.3936C21.875 10.062 21.7433 9.74409 21.5089 9.50967C21.2745 9.27525 20.9565 9.14355 20.625 9.14355Z" fill="white"/>
</svg>
